<?xml version="1.0" encoding="utf-8" standalone="no"?>
<!DOCTYPE svg PUBLIC "-//W3C//DTD SVG 1.1//EN"
  "http://www.w3.org/Graphics/SVG/1.1/DTD/svg11.dtd">
<!-- Created with matplotlib (http://matplotlib.org/) -->
<svg height="399pt" version="1.1" viewBox="0 0 558 399" width="558pt" xmlns="http://www.w3.org/2000/svg" xmlns:xlink="http://www.w3.org/1999/xlink">
 <defs>
  <style type="text/css">
*{stroke-linecap:butt;stroke-linejoin:round;stroke-miterlimit:100000;}
  </style>
 </defs>
 <g id="figure_1">
  <g id="patch_1">
   <path d="M 0 399.677181 
L 558.9675 399.677181 
L 558.9675 0 
L 0 0 
z
" style="fill:#ffffff;"/>
  </g>
  <g id="axes_1">
   <g id="patch_2">
    <path d="M 83.7675 303.94175 
L 530.1675 303.94175 
L 530.1675 44.74175 
L 83.7675 44.74175 
z
" style="fill:#ffffff;"/>
   </g>
   <g id="line2d_1">
    <path clip-path="url(#p336cf150a9)" d="M 83.7675 204.250846 
L 85.627619 204.250846 
L 86.24766 224.184159 
L 87.487738 224.184159 
L 88.107779 244.123557 
L 88.727818 224.184159 
L 89.347857 244.123557 
L 91.828017 244.123557 
L 92.448056 264.062955 
L 93.068097 264.062955 
L 93.688136 284.002352 
L 94.308175 264.062955 
L 95.548255 264.062955 
L 96.168294 284.002352 
L 96.788335 284.002352 
L 97.408374 303.94175 
L 101.066608 303.94175 
L 101.686647 284.002352 
L 102.306688 284.002352 
L 102.926727 264.062955 
L 104.786846 264.062955 
L 105.406885 244.123557 
L 106.026926 264.062955 
L 107.267004 264.062955 
L 107.887045 244.123557 
L 108.507084 244.123557 
L 109.747164 204.250846 
L 112.227322 204.250846 
L 113.467402 164.372051 
L 114.707482 164.372051 
L 115.327521 144.432654 
L 116.567601 144.432654 
L 117.18764 124.493256 
L 119.047759 124.493256 
L 119.6678 144.432654 
L 120.907878 144.432654 
L 121.527919 164.372051 
L 122.147958 144.432654 
L 122.767997 164.372051 
L 124.008077 164.372051 
L 125.248157 204.250846 
L 128.348353 204.250846 
L 128.968395 224.184159 
L 133.308671 224.184159 
L 133.92871 204.250846 
L 136.40887 204.250846 
L 137.648948 164.372051 
L 141.307185 164.372051 
L 141.927224 144.432654 
L 142.547262 144.432654 
L 143.167304 124.493256 
L 143.787343 124.493256 
L 144.407381 104.559943 
L 147.50758 104.559943 
L 148.127619 124.493256 
L 149.367699 124.493256 
L 149.987738 144.432654 
L 155.568095 144.432654 
L 156.188136 164.372051 
L 162.388532 164.372051 
L 163.008573 144.432654 
L 163.628612 144.432654 
L 164.248653 164.372051 
L 164.868692 164.372051 
L 165.488731 144.432654 
L 167.34885 144.432654 
L 167.968891 164.372051 
L 171.069088 164.372051 
L 171.689129 144.432654 
L 174.789326 144.432654 
L 175.409367 164.372051 
L 183.407878 164.372051 
L 184.027919 184.311449 
L 184.647958 164.372051 
L 187.128116 164.372051 
L 187.748157 184.311449 
L 189.608276 184.311449 
L 190.228315 164.372051 
L 192.088434 164.372051 
L 192.708472 184.311449 
L 193.948553 184.311449 
L 194.568591 204.250846 
L 197.048752 204.250846 
L 198.288829 244.123557 
L 198.908871 244.123557 
L 200.148948 284.002352 
L 200.76899 284.002352 
L 201.389028 303.94175 
L 202.009067 303.94175 
L 203.249147 264.062955 
L 203.869186 264.062955 
L 205.109266 224.184159 
L 208.209465 224.184159 
L 208.829504 204.250846 
L 214.409863 204.250846 
L 215.649941 164.372051 
L 218.068095 164.372051 
L 218.688136 144.432654 
L 220.548255 144.432654 
L 221.168294 124.493256 
L 222.408374 164.372051 
L 223.648452 164.372051 
L 224.268493 144.432654 
L 224.888532 144.432654 
L 225.508571 124.493256 
L 226.748651 124.493256 
L 227.368692 104.559943 
L 229.228811 104.559943 
L 229.84885 84.620545 
L 231.708969 84.620545 
L 232.32901 64.681148 
L 236.049248 64.681148 
L 236.669287 44.74175 
L 237.289326 64.681148 
L 247.209962 64.681148 
L 247.830001 84.620545 
L 248.45004 84.620545 
L 249.070081 64.681148 
L 250.9302 64.681148 
L 251.550238 84.620545 
L 255.270476 84.620545 
L 255.890518 104.559943 
L 259.548752 104.559943 
L 260.168791 124.493256 
L 260.78883 104.559943 
L 265.749148 104.559943 
L 266.369186 144.432654 
L 266.989228 124.493256 
L 270.709466 124.493256 
L 271.329504 104.559943 
L 271.949543 124.493256 
L 276.909861 124.493256 
L 277.529902 144.432654 
L 278.149941 124.493256 
L 280.01006 124.493256 
L 280.630102 104.559943 
L 281.25014 124.493256 
L 284.350339 124.493256 
L 284.970378 104.559943 
L 322.730795 104.559943 
L 323.350833 124.493256 
L 323.970875 104.559943 
L 328.311151 104.559943 
L 328.931193 124.493256 
L 331.349347 124.493256 
L 331.969386 144.432654 
L 340.0299 144.432654 
L 340.649942 164.372051 
L 349.330497 164.372051 
L 349.950536 184.311449 
L 350.570578 164.372051 
L 355.530893 164.372051 
L 356.150934 184.311449 
L 356.770973 184.311449 
L 357.391012 164.372051 
L 377.170278 164.372051 
L 377.790319 204.250846 
L 378.410358 184.311449 
L 379.030397 184.311449 
L 379.650438 164.372051 
L 402.5299 164.372051 
L 403.149942 144.432654 
L 403.769981 164.372051 
L 404.390019 164.372051 
L 405.010061 144.432654 
L 416.790816 144.432654 
L 417.410854 124.493256 
L 418.650935 124.493256 
L 419.270973 144.432654 
L 429.191607 144.432654 
L 429.811648 164.372051 
L 430.431687 144.432654 
L 432.291806 144.432654 
L 432.911845 164.372051 
L 442.150438 164.372051 
L 442.770477 144.432654 
L 443.390516 164.372051 
L 460.131589 164.372051 
L 460.751628 184.311449 
L 461.991708 184.311449 
L 462.611747 204.250846 
L 463.231788 204.250846 
L 463.851827 184.311449 
L 464.471866 204.250846 
L 478.670775 204.250846 
L 479.290816 224.184159 
L 479.910855 204.250846 
L 480.530893 224.184159 
L 481.150935 204.250846 
L 482.391012 204.250846 
L 483.011054 224.184159 
L 483.631093 204.250846 
L 484.251131 224.184159 
L 505.95252 224.184159 
L 506.572561 244.123557 
L 507.1926 244.123557 
L 507.812641 224.184159 
L 510.292799 224.184159 
L 510.912838 244.123557 
L 514.571072 244.123557 
L 515.191111 264.062955 
L 515.811152 264.062955 
L 516.431191 244.123557 
L 517.05123 264.062955 
L 517.671271 264.062955 
L 518.29131 244.123557 
L 520.771468 244.123557 
L 521.391509 264.062955 
L 522.011548 264.062955 
L 522.631589 244.123557 
L 523.251628 244.123557 
L 523.871667 264.062955 
L 525.731786 264.062955 
L 526.351827 244.123557 
L 526.971866 264.062955 
L 527.591907 244.123557 
L 529.452026 244.123557 
L 529.452026 244.123557 
" style="fill:none;stroke:#0000ff;stroke-linecap:square;"/>
   </g>
   <g id="patch_3">
    <path d="M 83.7675 44.74175 
L 530.1675 44.74175 
" style="fill:none;stroke:#000000;stroke-linecap:square;stroke-linejoin:miter;"/>
   </g>
   <g id="patch_4">
    <path d="M 530.1675 303.94175 
L 530.1675 44.74175 
" style="fill:none;stroke:#000000;stroke-linecap:square;stroke-linejoin:miter;"/>
   </g>
   <g id="patch_5">
    <path d="M 83.7675 303.94175 
L 530.1675 303.94175 
" style="fill:none;stroke:#000000;stroke-linecap:square;stroke-linejoin:miter;"/>
   </g>
   <g id="patch_6">
    <path d="M 83.7675 303.94175 
L 83.7675 44.74175 
" style="fill:none;stroke:#000000;stroke-linecap:square;stroke-linejoin:miter;"/>
   </g>
   <g id="matplotlib.axis_1">
    <g id="xtick_1">
     <g id="line2d_2">
      <defs>
       <path d="M 0 0 
L 0 -4 
" id="m4dcdfa88c2" style="stroke:#000000;stroke-width:0.5;"/>
      </defs>
      <g>
       <use style="stroke:#000000;stroke-width:0.5;" x="83.7675000429" xlink:href="#m4dcdfa88c2" y="303.94175"/>
      </g>
     </g>
     <g id="line2d_3">
      <defs>
       <path d="M 0 0 
L 0 4 
" id="m7921f1b2b0" style="stroke:#000000;stroke-width:0.5;"/>
      </defs>
      <g>
       <use style="stroke:#000000;stroke-width:0.5;" x="83.7675000429" xlink:href="#m7921f1b2b0" y="44.74175"/>
      </g>
     </g>
     <g id="text_1">
      <!-- 10:00:08 -->
      <defs>
       <path d="M 11.71875 12.40625 
L 22.015625 12.40625 
L 22.015625 0 
L 11.71875 0 
z
M 11.71875 51.703125 
L 22.015625 51.703125 
L 22.015625 39.3125 
L 11.71875 39.3125 
z
" id="BitstreamVeraSans-Roman-3a"/>
       <path d="M 31.78125 66.40625 
Q 24.171875 66.40625 20.328125 58.90625 
Q 16.5 51.421875 16.5 36.375 
Q 16.5 21.390625 20.328125 13.890625 
Q 24.171875 6.390625 31.78125 6.390625 
Q 39.453125 6.390625 43.28125 13.890625 
Q 47.125 21.390625 47.125 36.375 
Q 47.125 51.421875 43.28125 58.90625 
Q 39.453125 66.40625 31.78125 66.40625 
M 31.78125 74.21875 
Q 44.046875 74.21875 50.515625 64.515625 
Q 56.984375 54.828125 56.984375 36.375 
Q 56.984375 17.96875 50.515625 8.265625 
Q 44.046875 -1.421875 31.78125 -1.421875 
Q 19.53125 -1.421875 13.0625 8.265625 
Q 6.59375 17.96875 6.59375 36.375 
Q 6.59375 54.828125 13.0625 64.515625 
Q 19.53125 74.21875 31.78125 74.21875 
" id="BitstreamVeraSans-Roman-30"/>
       <path d="M 12.40625 8.296875 
L 28.515625 8.296875 
L 28.515625 63.921875 
L 10.984375 60.40625 
L 10.984375 69.390625 
L 28.421875 72.90625 
L 38.28125 72.90625 
L 38.28125 8.296875 
L 54.390625 8.296875 
L 54.390625 0 
L 12.40625 0 
z
" id="BitstreamVeraSans-Roman-31"/>
       <path d="M 31.78125 34.625 
Q 24.75 34.625 20.71875 30.859375 
Q 16.703125 27.09375 16.703125 20.515625 
Q 16.703125 13.921875 20.71875 10.15625 
Q 24.75 6.390625 31.78125 6.390625 
Q 38.8125 6.390625 42.859375 10.171875 
Q 46.921875 13.96875 46.921875 20.515625 
Q 46.921875 27.09375 42.890625 30.859375 
Q 38.875 34.625 31.78125 34.625 
M 21.921875 38.8125 
Q 15.578125 40.375 12.03125 44.71875 
Q 8.5 49.078125 8.5 55.328125 
Q 8.5 64.0625 14.71875 69.140625 
Q 20.953125 74.21875 31.78125 74.21875 
Q 42.671875 74.21875 48.875 69.140625 
Q 55.078125 64.0625 55.078125 55.328125 
Q 55.078125 49.078125 51.53125 44.71875 
Q 48 40.375 41.703125 38.8125 
Q 48.828125 37.15625 52.796875 32.3125 
Q 56.78125 27.484375 56.78125 20.515625 
Q 56.78125 9.90625 50.3125 4.234375 
Q 43.84375 -1.421875 31.78125 -1.421875 
Q 19.734375 -1.421875 13.25 4.234375 
Q 6.78125 9.90625 6.78125 20.515625 
Q 6.78125 27.484375 10.78125 32.3125 
Q 14.796875 37.15625 21.921875 38.8125 
M 18.3125 54.390625 
Q 18.3125 48.734375 21.84375 45.5625 
Q 25.390625 42.390625 31.78125 42.390625 
Q 38.140625 42.390625 41.71875 45.5625 
Q 45.3125 48.734375 45.3125 54.390625 
Q 45.3125 60.0625 41.71875 63.234375 
Q 38.140625 66.40625 31.78125 66.40625 
Q 25.390625 66.40625 21.84375 63.234375 
Q 18.3125 60.0625 18.3125 54.390625 
" id="BitstreamVeraSans-Roman-38"/>
      </defs>
      <g transform="translate(43.8933067101 352.498757991)rotate(-45.0)scale(0.12 -0.12)">
       <use xlink:href="#BitstreamVeraSans-Roman-31"/>
       <use x="63.623046875" xlink:href="#BitstreamVeraSans-Roman-30"/>
       <use x="127.24609375" xlink:href="#BitstreamVeraSans-Roman-3a"/>
       <use x="160.9375" xlink:href="#BitstreamVeraSans-Roman-30"/>
       <use x="224.560546875" xlink:href="#BitstreamVeraSans-Roman-30"/>
       <use x="288.18359375" xlink:href="#BitstreamVeraSans-Roman-3a"/>
       <use x="321.875" xlink:href="#BitstreamVeraSans-Roman-30"/>
       <use x="385.498046875" xlink:href="#BitstreamVeraSans-Roman-38"/>
      </g>
     </g>
    </g>
    <g id="xtick_2">
     <g id="line2d_4">
      <g>
       <use style="stroke:#000000;stroke-width:0.5;" x="139.567499995" xlink:href="#m4dcdfa88c2" y="303.94175"/>
      </g>
     </g>
     <g id="line2d_5">
      <g>
       <use style="stroke:#000000;stroke-width:0.5;" x="139.567499995" xlink:href="#m7921f1b2b0" y="44.74175"/>
      </g>
     </g>
     <g id="text_2">
      <!-- 10:15:08 -->
      <defs>
       <path d="M 10.796875 72.90625 
L 49.515625 72.90625 
L 49.515625 64.59375 
L 19.828125 64.59375 
L 19.828125 46.734375 
Q 21.96875 47.46875 24.109375 47.828125 
Q 26.265625 48.1875 28.421875 48.1875 
Q 40.625 48.1875 47.75 41.5 
Q 54.890625 34.8125 54.890625 23.390625 
Q 54.890625 11.625 47.5625 5.09375 
Q 40.234375 -1.421875 26.90625 -1.421875 
Q 22.3125 -1.421875 17.546875 -0.640625 
Q 12.796875 0.140625 7.71875 1.703125 
L 7.71875 11.625 
Q 12.109375 9.234375 16.796875 8.0625 
Q 21.484375 6.890625 26.703125 6.890625 
Q 35.15625 6.890625 40.078125 11.328125 
Q 45.015625 15.765625 45.015625 23.390625 
Q 45.015625 31 40.078125 35.4375 
Q 35.15625 39.890625 26.703125 39.890625 
Q 22.75 39.890625 18.8125 39.015625 
Q 14.890625 38.140625 10.796875 36.28125 
z
" id="BitstreamVeraSans-Roman-35"/>
      </defs>
      <g transform="translate(99.6933066624 352.498757991)rotate(-45.0)scale(0.12 -0.12)">
       <use xlink:href="#BitstreamVeraSans-Roman-31"/>
       <use x="63.623046875" xlink:href="#BitstreamVeraSans-Roman-30"/>
       <use x="127.24609375" xlink:href="#BitstreamVeraSans-Roman-3a"/>
       <use x="160.9375" xlink:href="#BitstreamVeraSans-Roman-31"/>
       <use x="224.560546875" xlink:href="#BitstreamVeraSans-Roman-35"/>
       <use x="288.18359375" xlink:href="#BitstreamVeraSans-Roman-3a"/>
       <use x="321.875" xlink:href="#BitstreamVeraSans-Roman-30"/>
       <use x="385.498046875" xlink:href="#BitstreamVeraSans-Roman-38"/>
      </g>
     </g>
    </g>
    <g id="xtick_3">
     <g id="line2d_6">
      <g>
       <use style="stroke:#000000;stroke-width:0.5;" x="195.367500067" xlink:href="#m4dcdfa88c2" y="303.94175"/>
      </g>
     </g>
     <g id="line2d_7">
      <g>
       <use style="stroke:#000000;stroke-width:0.5;" x="195.367500067" xlink:href="#m7921f1b2b0" y="44.74175"/>
      </g>
     </g>
     <g id="text_3">
      <!-- 10:30:08 -->
      <defs>
       <path d="M 40.578125 39.3125 
Q 47.65625 37.796875 51.625 33 
Q 55.609375 28.21875 55.609375 21.1875 
Q 55.609375 10.40625 48.1875 4.484375 
Q 40.765625 -1.421875 27.09375 -1.421875 
Q 22.515625 -1.421875 17.65625 -0.515625 
Q 12.796875 0.390625 7.625 2.203125 
L 7.625 11.71875 
Q 11.71875 9.328125 16.59375 8.109375 
Q 21.484375 6.890625 26.8125 6.890625 
Q 36.078125 6.890625 40.9375 10.546875 
Q 45.796875 14.203125 45.796875 21.1875 
Q 45.796875 27.640625 41.28125 31.265625 
Q 36.765625 34.90625 28.71875 34.90625 
L 20.21875 34.90625 
L 20.21875 43.015625 
L 29.109375 43.015625 
Q 36.375 43.015625 40.234375 45.921875 
Q 44.09375 48.828125 44.09375 54.296875 
Q 44.09375 59.90625 40.109375 62.90625 
Q 36.140625 65.921875 28.71875 65.921875 
Q 24.65625 65.921875 20.015625 65.03125 
Q 15.375 64.15625 9.8125 62.3125 
L 9.8125 71.09375 
Q 15.4375 72.65625 20.34375 73.4375 
Q 25.25 74.21875 29.59375 74.21875 
Q 40.828125 74.21875 47.359375 69.109375 
Q 53.90625 64.015625 53.90625 55.328125 
Q 53.90625 49.265625 50.4375 45.09375 
Q 46.96875 40.921875 40.578125 39.3125 
" id="BitstreamVeraSans-Roman-33"/>
      </defs>
      <g transform="translate(155.493306734 352.498757991)rotate(-45.0)scale(0.12 -0.12)">
       <use xlink:href="#BitstreamVeraSans-Roman-31"/>
       <use x="63.623046875" xlink:href="#BitstreamVeraSans-Roman-30"/>
       <use x="127.24609375" xlink:href="#BitstreamVeraSans-Roman-3a"/>
       <use x="160.9375" xlink:href="#BitstreamVeraSans-Roman-33"/>
       <use x="224.560546875" xlink:href="#BitstreamVeraSans-Roman-30"/>
       <use x="288.18359375" xlink:href="#BitstreamVeraSans-Roman-3a"/>
       <use x="321.875" xlink:href="#BitstreamVeraSans-Roman-30"/>
       <use x="385.498046875" xlink:href="#BitstreamVeraSans-Roman-38"/>
      </g>
     </g>
    </g>
    <g id="xtick_4">
     <g id="line2d_8">
      <g>
       <use style="stroke:#000000;stroke-width:0.5;" x="251.167500019" xlink:href="#m4dcdfa88c2" y="303.94175"/>
      </g>
     </g>
     <g id="line2d_9">
      <g>
       <use style="stroke:#000000;stroke-width:0.5;" x="251.167500019" xlink:href="#m7921f1b2b0" y="44.74175"/>
      </g>
     </g>
     <g id="text_4">
      <!-- 10:45:08 -->
      <defs>
       <path d="M 37.796875 64.3125 
L 12.890625 25.390625 
L 37.796875 25.390625 
z
M 35.203125 72.90625 
L 47.609375 72.90625 
L 47.609375 25.390625 
L 58.015625 25.390625 
L 58.015625 17.1875 
L 47.609375 17.1875 
L 47.609375 0 
L 37.796875 0 
L 37.796875 17.1875 
L 4.890625 17.1875 
L 4.890625 26.703125 
z
" id="BitstreamVeraSans-Roman-34"/>
      </defs>
      <g transform="translate(211.293306686 352.498757991)rotate(-45.0)scale(0.12 -0.12)">
       <use xlink:href="#BitstreamVeraSans-Roman-31"/>
       <use x="63.623046875" xlink:href="#BitstreamVeraSans-Roman-30"/>
       <use x="127.24609375" xlink:href="#BitstreamVeraSans-Roman-3a"/>
       <use x="160.9375" xlink:href="#BitstreamVeraSans-Roman-34"/>
       <use x="224.560546875" xlink:href="#BitstreamVeraSans-Roman-35"/>
       <use x="288.18359375" xlink:href="#BitstreamVeraSans-Roman-3a"/>
       <use x="321.875" xlink:href="#BitstreamVeraSans-Roman-30"/>
       <use x="385.498046875" xlink:href="#BitstreamVeraSans-Roman-38"/>
      </g>
     </g>
    </g>
    <g id="xtick_5">
     <g id="line2d_10">
      <g>
       <use style="stroke:#000000;stroke-width:0.5;" x="306.967499971" xlink:href="#m4dcdfa88c2" y="303.94175"/>
      </g>
     </g>
     <g id="line2d_11">
      <g>
       <use style="stroke:#000000;stroke-width:0.5;" x="306.967499971" xlink:href="#m7921f1b2b0" y="44.74175"/>
      </g>
     </g>
     <g id="text_5">
      <!-- 11:00:08 -->
      <g transform="translate(267.093306639 352.498757991)rotate(-45.0)scale(0.12 -0.12)">
       <use xlink:href="#BitstreamVeraSans-Roman-31"/>
       <use x="63.623046875" xlink:href="#BitstreamVeraSans-Roman-31"/>
       <use x="127.24609375" xlink:href="#BitstreamVeraSans-Roman-3a"/>
       <use x="160.9375" xlink:href="#BitstreamVeraSans-Roman-30"/>
       <use x="224.560546875" xlink:href="#BitstreamVeraSans-Roman-30"/>
       <use x="288.18359375" xlink:href="#BitstreamVeraSans-Roman-3a"/>
       <use x="321.875" xlink:href="#BitstreamVeraSans-Roman-30"/>
       <use x="385.498046875" xlink:href="#BitstreamVeraSans-Roman-38"/>
      </g>
     </g>
    </g>
    <g id="xtick_6">
     <g id="line2d_12">
      <g>
       <use style="stroke:#000000;stroke-width:0.5;" x="362.767500043" xlink:href="#m4dcdfa88c2" y="303.94175"/>
      </g>
     </g>
     <g id="line2d_13">
      <g>
       <use style="stroke:#000000;stroke-width:0.5;" x="362.767500043" xlink:href="#m7921f1b2b0" y="44.74175"/>
      </g>
     </g>
     <g id="text_6">
      <!-- 11:15:08 -->
      <g transform="translate(322.89330671 352.498757991)rotate(-45.0)scale(0.12 -0.12)">
       <use xlink:href="#BitstreamVeraSans-Roman-31"/>
       <use x="63.623046875" xlink:href="#BitstreamVeraSans-Roman-31"/>
       <use x="127.24609375" xlink:href="#BitstreamVeraSans-Roman-3a"/>
       <use x="160.9375" xlink:href="#BitstreamVeraSans-Roman-31"/>
       <use x="224.560546875" xlink:href="#BitstreamVeraSans-Roman-35"/>
       <use x="288.18359375" xlink:href="#BitstreamVeraSans-Roman-3a"/>
       <use x="321.875" xlink:href="#BitstreamVeraSans-Roman-30"/>
       <use x="385.498046875" xlink:href="#BitstreamVeraSans-Roman-38"/>
      </g>
     </g>
    </g>
    <g id="xtick_7">
     <g id="line2d_14">
      <g>
       <use style="stroke:#000000;stroke-width:0.5;" x="418.567499995" xlink:href="#m4dcdfa88c2" y="303.94175"/>
      </g>
     </g>
     <g id="line2d_15">
      <g>
       <use style="stroke:#000000;stroke-width:0.5;" x="418.567499995" xlink:href="#m7921f1b2b0" y="44.74175"/>
      </g>
     </g>
     <g id="text_7">
      <!-- 11:30:08 -->
      <g transform="translate(378.693306662 352.498757991)rotate(-45.0)scale(0.12 -0.12)">
       <use xlink:href="#BitstreamVeraSans-Roman-31"/>
       <use x="63.623046875" xlink:href="#BitstreamVeraSans-Roman-31"/>
       <use x="127.24609375" xlink:href="#BitstreamVeraSans-Roman-3a"/>
       <use x="160.9375" xlink:href="#BitstreamVeraSans-Roman-33"/>
       <use x="224.560546875" xlink:href="#BitstreamVeraSans-Roman-30"/>
       <use x="288.18359375" xlink:href="#BitstreamVeraSans-Roman-3a"/>
       <use x="321.875" xlink:href="#BitstreamVeraSans-Roman-30"/>
       <use x="385.498046875" xlink:href="#BitstreamVeraSans-Roman-38"/>
      </g>
     </g>
    </g>
    <g id="xtick_8">
     <g id="line2d_16">
      <g>
       <use style="stroke:#000000;stroke-width:0.5;" x="474.367500067" xlink:href="#m4dcdfa88c2" y="303.94175"/>
      </g>
     </g>
     <g id="line2d_17">
      <g>
       <use style="stroke:#000000;stroke-width:0.5;" x="474.367500067" xlink:href="#m7921f1b2b0" y="44.74175"/>
      </g>
     </g>
     <g id="text_8">
      <!-- 11:45:08 -->
      <g transform="translate(434.493306734 352.498757991)rotate(-45.0)scale(0.12 -0.12)">
       <use xlink:href="#BitstreamVeraSans-Roman-31"/>
       <use x="63.623046875" xlink:href="#BitstreamVeraSans-Roman-31"/>
       <use x="127.24609375" xlink:href="#BitstreamVeraSans-Roman-3a"/>
       <use x="160.9375" xlink:href="#BitstreamVeraSans-Roman-34"/>
       <use x="224.560546875" xlink:href="#BitstreamVeraSans-Roman-35"/>
       <use x="288.18359375" xlink:href="#BitstreamVeraSans-Roman-3a"/>
       <use x="321.875" xlink:href="#BitstreamVeraSans-Roman-30"/>
       <use x="385.498046875" xlink:href="#BitstreamVeraSans-Roman-38"/>
      </g>
     </g>
    </g>
    <g id="xtick_9">
     <g id="line2d_18">
      <g>
       <use style="stroke:#000000;stroke-width:0.5;" x="530.167500019" xlink:href="#m4dcdfa88c2" y="303.94175"/>
      </g>
     </g>
     <g id="line2d_19">
      <g>
       <use style="stroke:#000000;stroke-width:0.5;" x="530.167500019" xlink:href="#m7921f1b2b0" y="44.74175"/>
      </g>
     </g>
     <g id="text_9">
      <!-- 12:00:08 -->
      <defs>
       <path d="M 19.1875 8.296875 
L 53.609375 8.296875 
L 53.609375 0 
L 7.328125 0 
L 7.328125 8.296875 
Q 12.9375 14.109375 22.625 23.890625 
Q 32.328125 33.6875 34.8125 36.53125 
Q 39.546875 41.84375 41.421875 45.53125 
Q 43.3125 49.21875 43.3125 52.78125 
Q 43.3125 58.59375 39.234375 62.25 
Q 35.15625 65.921875 28.609375 65.921875 
Q 23.96875 65.921875 18.8125 64.3125 
Q 13.671875 62.703125 7.8125 59.421875 
L 7.8125 69.390625 
Q 13.765625 71.78125 18.9375 73 
Q 24.125 74.21875 28.421875 74.21875 
Q 39.75 74.21875 46.484375 68.546875 
Q 53.21875 62.890625 53.21875 53.421875 
Q 53.21875 48.921875 51.53125 44.890625 
Q 49.859375 40.875 45.40625 35.40625 
Q 44.1875 33.984375 37.640625 27.21875 
Q 31.109375 20.453125 19.1875 8.296875 
" id="BitstreamVeraSans-Roman-32"/>
      </defs>
      <g transform="translate(490.293306686 352.498757991)rotate(-45.0)scale(0.12 -0.12)">
       <use xlink:href="#BitstreamVeraSans-Roman-31"/>
       <use x="63.623046875" xlink:href="#BitstreamVeraSans-Roman-32"/>
       <use x="127.24609375" xlink:href="#BitstreamVeraSans-Roman-3a"/>
       <use x="160.9375" xlink:href="#BitstreamVeraSans-Roman-30"/>
       <use x="224.560546875" xlink:href="#BitstreamVeraSans-Roman-30"/>
       <use x="288.18359375" xlink:href="#BitstreamVeraSans-Roman-3a"/>
       <use x="321.875" xlink:href="#BitstreamVeraSans-Roman-30"/>
       <use x="385.498046875" xlink:href="#BitstreamVeraSans-Roman-38"/>
      </g>
     </g>
    </g>
    <g id="text_10">
     <!-- time  -->
     <defs>
      <path d="M 56.203125 29.59375 
L 56.203125 25.203125 
L 14.890625 25.203125 
Q 15.484375 15.921875 20.484375 11.0625 
Q 25.484375 6.203125 34.421875 6.203125 
Q 39.59375 6.203125 44.453125 7.46875 
Q 49.3125 8.734375 54.109375 11.28125 
L 54.109375 2.78125 
Q 49.265625 0.734375 44.1875 -0.34375 
Q 39.109375 -1.421875 33.890625 -1.421875 
Q 20.796875 -1.421875 13.15625 6.1875 
Q 5.515625 13.8125 5.515625 26.8125 
Q 5.515625 40.234375 12.765625 48.109375 
Q 20.015625 56 32.328125 56 
Q 43.359375 56 49.78125 48.890625 
Q 56.203125 41.796875 56.203125 29.59375 
M 47.21875 32.234375 
Q 47.125 39.59375 43.09375 43.984375 
Q 39.0625 48.390625 32.421875 48.390625 
Q 24.90625 48.390625 20.390625 44.140625 
Q 15.875 39.890625 15.1875 32.171875 
z
" id="BitstreamVeraSans-Roman-65"/>
      <path d="M 52 44.1875 
Q 55.375 50.25 60.0625 53.125 
Q 64.75 56 71.09375 56 
Q 79.640625 56 84.28125 50.015625 
Q 88.921875 44.046875 88.921875 33.015625 
L 88.921875 0 
L 79.890625 0 
L 79.890625 32.71875 
Q 79.890625 40.578125 77.09375 44.375 
Q 74.3125 48.1875 68.609375 48.1875 
Q 61.625 48.1875 57.5625 43.546875 
Q 53.515625 38.921875 53.515625 30.90625 
L 53.515625 0 
L 44.484375 0 
L 44.484375 32.71875 
Q 44.484375 40.625 41.703125 44.40625 
Q 38.921875 48.1875 33.109375 48.1875 
Q 26.21875 48.1875 22.15625 43.53125 
Q 18.109375 38.875 18.109375 30.90625 
L 18.109375 0 
L 9.078125 0 
L 9.078125 54.6875 
L 18.109375 54.6875 
L 18.109375 46.1875 
Q 21.1875 51.21875 25.484375 53.609375 
Q 29.78125 56 35.6875 56 
Q 41.65625 56 45.828125 52.96875 
Q 50 49.953125 52 44.1875 
" id="BitstreamVeraSans-Roman-6d"/>
      <path d="M 18.3125 70.21875 
L 18.3125 54.6875 
L 36.8125 54.6875 
L 36.8125 47.703125 
L 18.3125 47.703125 
L 18.3125 18.015625 
Q 18.3125 11.328125 20.140625 9.421875 
Q 21.96875 7.515625 27.59375 7.515625 
L 36.8125 7.515625 
L 36.8125 0 
L 27.59375 0 
Q 17.1875 0 13.234375 3.875 
Q 9.28125 7.765625 9.28125 18.015625 
L 9.28125 47.703125 
L 2.6875 47.703125 
L 2.6875 54.6875 
L 9.28125 54.6875 
L 9.28125 70.21875 
z
" id="BitstreamVeraSans-Roman-74"/>
      <path d="M 9.421875 54.6875 
L 18.40625 54.6875 
L 18.40625 0 
L 9.421875 0 
z
M 9.421875 75.984375 
L 18.40625 75.984375 
L 18.40625 64.59375 
L 9.421875 64.59375 
z
" id="BitstreamVeraSans-Roman-69"/>
      <path id="BitstreamVeraSans-Roman-20"/>
     </defs>
     <g transform="translate(291.5053125 368.381556352)scale(0.12 -0.12)">
      <use xlink:href="#BitstreamVeraSans-Roman-74"/>
      <use x="39.208984375" xlink:href="#BitstreamVeraSans-Roman-69"/>
      <use x="66.9921875" xlink:href="#BitstreamVeraSans-Roman-6d"/>
      <use x="164.404296875" xlink:href="#BitstreamVeraSans-Roman-65"/>
      <use x="225.927734375" xlink:href="#BitstreamVeraSans-Roman-20"/>
     </g>
    </g>
   </g>
   <g id="matplotlib.axis_2">
    <g id="ytick_1">
     <g id="line2d_20">
      <defs>
       <path d="M 0 0 
L 4 0 
" id="m81e0c9aec1" style="stroke:#000000;stroke-width:0.5;"/>
      </defs>
      <g>
       <use style="stroke:#000000;stroke-width:0.5;" x="83.7675" xlink:href="#m81e0c9aec1" y="274.032045077"/>
      </g>
     </g>
     <g id="line2d_21">
      <defs>
       <path d="M 0 0 
L -4 0 
" id="mb46045ac6a" style="stroke:#000000;stroke-width:0.5;"/>
      </defs>
      <g>
       <use style="stroke:#000000;stroke-width:0.5;" x="530.1675" xlink:href="#mb46045ac6a" y="274.032045077"/>
      </g>
     </g>
     <g id="text_11">
      <!-- 292.2 -->
      <defs>
       <path d="M 10.984375 1.515625 
L 10.984375 10.5 
Q 14.703125 8.734375 18.5 7.8125 
Q 22.3125 6.890625 25.984375 6.890625 
Q 35.75 6.890625 40.890625 13.453125 
Q 46.046875 20.015625 46.78125 33.40625 
Q 43.953125 29.203125 39.59375 26.953125 
Q 35.25 24.703125 29.984375 24.703125 
Q 19.046875 24.703125 12.671875 31.3125 
Q 6.296875 37.9375 6.296875 49.421875 
Q 6.296875 60.640625 12.9375 67.421875 
Q 19.578125 74.21875 30.609375 74.21875 
Q 43.265625 74.21875 49.921875 64.515625 
Q 56.59375 54.828125 56.59375 36.375 
Q 56.59375 19.140625 48.40625 8.859375 
Q 40.234375 -1.421875 26.421875 -1.421875 
Q 22.703125 -1.421875 18.890625 -0.6875 
Q 15.09375 0.046875 10.984375 1.515625 
M 30.609375 32.421875 
Q 37.25 32.421875 41.125 36.953125 
Q 45.015625 41.5 45.015625 49.421875 
Q 45.015625 57.28125 41.125 61.84375 
Q 37.25 66.40625 30.609375 66.40625 
Q 23.96875 66.40625 20.09375 61.84375 
Q 16.21875 57.28125 16.21875 49.421875 
Q 16.21875 41.5 20.09375 36.953125 
Q 23.96875 32.421875 30.609375 32.421875 
" id="BitstreamVeraSans-Roman-39"/>
       <path d="M 10.6875 12.40625 
L 21 12.40625 
L 21 0 
L 10.6875 0 
z
" id="BitstreamVeraSans-Roman-2e"/>
      </defs>
      <g transform="translate(45.41375 277.343295077)scale(0.12 -0.12)">
       <use xlink:href="#BitstreamVeraSans-Roman-32"/>
       <use x="63.623046875" xlink:href="#BitstreamVeraSans-Roman-39"/>
       <use x="127.24609375" xlink:href="#BitstreamVeraSans-Roman-32"/>
       <use x="190.869140625" xlink:href="#BitstreamVeraSans-Roman-2e"/>
       <use x="222.65625" xlink:href="#BitstreamVeraSans-Roman-32"/>
      </g>
     </g>
    </g>
    <g id="ytick_2">
     <g id="line2d_22">
      <g>
       <use style="stroke:#000000;stroke-width:0.5;" x="83.7675" xlink:href="#m81e0c9aec1" y="234.15568366"/>
      </g>
     </g>
     <g id="line2d_23">
      <g>
       <use style="stroke:#000000;stroke-width:0.5;" x="530.1675" xlink:href="#mb46045ac6a" y="234.15568366"/>
      </g>
     </g>
     <g id="text_12">
      <!-- 292.4 -->
      <g transform="translate(45.41375 237.46693366)scale(0.12 -0.12)">
       <use xlink:href="#BitstreamVeraSans-Roman-32"/>
       <use x="63.623046875" xlink:href="#BitstreamVeraSans-Roman-39"/>
       <use x="127.24609375" xlink:href="#BitstreamVeraSans-Roman-32"/>
       <use x="190.869140625" xlink:href="#BitstreamVeraSans-Roman-2e"/>
       <use x="222.65625" xlink:href="#BitstreamVeraSans-Roman-34"/>
      </g>
     </g>
    </g>
    <g id="ytick_3">
     <g id="line2d_24">
      <g>
       <use style="stroke:#000000;stroke-width:0.5;" x="83.7675" xlink:href="#m81e0c9aec1" y="194.279322243"/>
      </g>
     </g>
     <g id="line2d_25">
      <g>
       <use style="stroke:#000000;stroke-width:0.5;" x="530.1675" xlink:href="#mb46045ac6a" y="194.279322243"/>
      </g>
     </g>
     <g id="text_13">
      <!-- 292.6 -->
      <defs>
       <path d="M 33.015625 40.375 
Q 26.375 40.375 22.484375 35.828125 
Q 18.609375 31.296875 18.609375 23.390625 
Q 18.609375 15.53125 22.484375 10.953125 
Q 26.375 6.390625 33.015625 6.390625 
Q 39.65625 6.390625 43.53125 10.953125 
Q 47.40625 15.53125 47.40625 23.390625 
Q 47.40625 31.296875 43.53125 35.828125 
Q 39.65625 40.375 33.015625 40.375 
M 52.59375 71.296875 
L 52.59375 62.3125 
Q 48.875 64.0625 45.09375 64.984375 
Q 41.3125 65.921875 37.59375 65.921875 
Q 27.828125 65.921875 22.671875 59.328125 
Q 17.53125 52.734375 16.796875 39.40625 
Q 19.671875 43.65625 24.015625 45.921875 
Q 28.375 48.1875 33.59375 48.1875 
Q 44.578125 48.1875 50.953125 41.515625 
Q 57.328125 34.859375 57.328125 23.390625 
Q 57.328125 12.15625 50.6875 5.359375 
Q 44.046875 -1.421875 33.015625 -1.421875 
Q 20.359375 -1.421875 13.671875 8.265625 
Q 6.984375 17.96875 6.984375 36.375 
Q 6.984375 53.65625 15.1875 63.9375 
Q 23.390625 74.21875 37.203125 74.21875 
Q 40.921875 74.21875 44.703125 73.484375 
Q 48.484375 72.75 52.59375 71.296875 
" id="BitstreamVeraSans-Roman-36"/>
      </defs>
      <g transform="translate(45.41375 197.590572243)scale(0.12 -0.12)">
       <use xlink:href="#BitstreamVeraSans-Roman-32"/>
       <use x="63.623046875" xlink:href="#BitstreamVeraSans-Roman-39"/>
       <use x="127.24609375" xlink:href="#BitstreamVeraSans-Roman-32"/>
       <use x="190.869140625" xlink:href="#BitstreamVeraSans-Roman-2e"/>
       <use x="222.65625" xlink:href="#BitstreamVeraSans-Roman-36"/>
      </g>
     </g>
    </g>
    <g id="ytick_4">
     <g id="line2d_26">
      <g>
       <use style="stroke:#000000;stroke-width:0.5;" x="83.7675" xlink:href="#m81e0c9aec1" y="154.402960827"/>
      </g>
     </g>
     <g id="line2d_27">
      <g>
       <use style="stroke:#000000;stroke-width:0.5;" x="530.1675" xlink:href="#mb46045ac6a" y="154.402960827"/>
      </g>
     </g>
     <g id="text_14">
      <!-- 292.8 -->
      <g transform="translate(45.41375 157.714210827)scale(0.12 -0.12)">
       <use xlink:href="#BitstreamVeraSans-Roman-32"/>
       <use x="63.623046875" xlink:href="#BitstreamVeraSans-Roman-39"/>
       <use x="127.24609375" xlink:href="#BitstreamVeraSans-Roman-32"/>
       <use x="190.869140625" xlink:href="#BitstreamVeraSans-Roman-2e"/>
       <use x="222.65625" xlink:href="#BitstreamVeraSans-Roman-38"/>
      </g>
     </g>
    </g>
    <g id="ytick_5">
     <g id="line2d_28">
      <g>
       <use style="stroke:#000000;stroke-width:0.5;" x="83.7675" xlink:href="#m81e0c9aec1" y="114.52659941"/>
      </g>
     </g>
     <g id="line2d_29">
      <g>
       <use style="stroke:#000000;stroke-width:0.5;" x="530.1675" xlink:href="#mb46045ac6a" y="114.52659941"/>
      </g>
     </g>
     <g id="text_15">
      <!-- 293.0 -->
      <g transform="translate(45.41375 117.83784941)scale(0.12 -0.12)">
       <use xlink:href="#BitstreamVeraSans-Roman-32"/>
       <use x="63.623046875" xlink:href="#BitstreamVeraSans-Roman-39"/>
       <use x="127.24609375" xlink:href="#BitstreamVeraSans-Roman-33"/>
       <use x="190.869140625" xlink:href="#BitstreamVeraSans-Roman-2e"/>
       <use x="222.65625" xlink:href="#BitstreamVeraSans-Roman-30"/>
      </g>
     </g>
    </g>
    <g id="ytick_6">
     <g id="line2d_30">
      <g>
       <use style="stroke:#000000;stroke-width:0.5;" x="83.7675" xlink:href="#m81e0c9aec1" y="74.6502379927"/>
      </g>
     </g>
     <g id="line2d_31">
      <g>
       <use style="stroke:#000000;stroke-width:0.5;" x="530.1675" xlink:href="#mb46045ac6a" y="74.6502379927"/>
      </g>
     </g>
     <g id="text_16">
      <!-- 293.2 -->
      <g transform="translate(45.41375 77.9614879927)scale(0.12 -0.12)">
       <use xlink:href="#BitstreamVeraSans-Roman-32"/>
       <use x="63.623046875" xlink:href="#BitstreamVeraSans-Roman-39"/>
       <use x="127.24609375" xlink:href="#BitstreamVeraSans-Roman-33"/>
       <use x="190.869140625" xlink:href="#BitstreamVeraSans-Roman-2e"/>
       <use x="222.65625" xlink:href="#BitstreamVeraSans-Roman-32"/>
      </g>
     </g>
    </g>
    <g id="ytick_7">
     <g id="line2d_32">
      <defs>
       <path d="M 0 0 
L 2 0 
" id="m0af247f1fc" style="stroke:#000000;stroke-width:0.5;"/>
      </defs>
      <g>
       <use style="stroke:#000000;stroke-width:0.5;" x="83.7675" xlink:href="#m0af247f1fc" y="303.93931614"/>
      </g>
     </g>
     <g id="line2d_33">
      <defs>
       <path d="M 0 0 
L -2 0 
" id="m29388ed1f2" style="stroke:#000000;stroke-width:0.5;"/>
      </defs>
      <g>
       <use style="stroke:#000000;stroke-width:0.5;" x="530.1675" xlink:href="#m29388ed1f2" y="303.93931614"/>
      </g>
     </g>
    </g>
    <g id="ytick_8">
     <g id="line2d_34">
      <g>
       <use style="stroke:#000000;stroke-width:0.5;" x="83.7675" xlink:href="#m0af247f1fc" y="293.970225786"/>
      </g>
     </g>
     <g id="line2d_35">
      <g>
       <use style="stroke:#000000;stroke-width:0.5;" x="530.1675" xlink:href="#m29388ed1f2" y="293.970225786"/>
      </g>
     </g>
    </g>
    <g id="ytick_9">
     <g id="line2d_36">
      <g>
       <use style="stroke:#000000;stroke-width:0.5;" x="83.7675" xlink:href="#m0af247f1fc" y="284.001135432"/>
      </g>
     </g>
     <g id="line2d_37">
      <g>
       <use style="stroke:#000000;stroke-width:0.5;" x="530.1675" xlink:href="#m29388ed1f2" y="284.001135432"/>
      </g>
     </g>
    </g>
    <g id="ytick_10">
     <g id="line2d_38">
      <g>
       <use style="stroke:#000000;stroke-width:0.5;" x="83.7675" xlink:href="#m0af247f1fc" y="264.062954723"/>
      </g>
     </g>
     <g id="line2d_39">
      <g>
       <use style="stroke:#000000;stroke-width:0.5;" x="530.1675" xlink:href="#m29388ed1f2" y="264.062954723"/>
      </g>
     </g>
    </g>
    <g id="ytick_11">
     <g id="line2d_40">
      <g>
       <use style="stroke:#000000;stroke-width:0.5;" x="83.7675" xlink:href="#m0af247f1fc" y="254.093864369"/>
      </g>
     </g>
     <g id="line2d_41">
      <g>
       <use style="stroke:#000000;stroke-width:0.5;" x="530.1675" xlink:href="#m29388ed1f2" y="254.093864369"/>
      </g>
     </g>
    </g>
    <g id="ytick_12">
     <g id="line2d_42">
      <g>
       <use style="stroke:#000000;stroke-width:0.5;" x="83.7675" xlink:href="#m0af247f1fc" y="244.124774015"/>
      </g>
     </g>
     <g id="line2d_43">
      <g>
       <use style="stroke:#000000;stroke-width:0.5;" x="530.1675" xlink:href="#m29388ed1f2" y="244.124774015"/>
      </g>
     </g>
    </g>
    <g id="ytick_13">
     <g id="line2d_44">
      <g>
       <use style="stroke:#000000;stroke-width:0.5;" x="83.7675" xlink:href="#m0af247f1fc" y="224.186593306"/>
      </g>
     </g>
     <g id="line2d_45">
      <g>
       <use style="stroke:#000000;stroke-width:0.5;" x="530.1675" xlink:href="#m29388ed1f2" y="224.186593306"/>
      </g>
     </g>
    </g>
    <g id="ytick_14">
     <g id="line2d_46">
      <g>
       <use style="stroke:#000000;stroke-width:0.5;" x="83.7675" xlink:href="#m0af247f1fc" y="214.217502952"/>
      </g>
     </g>
     <g id="line2d_47">
      <g>
       <use style="stroke:#000000;stroke-width:0.5;" x="530.1675" xlink:href="#m29388ed1f2" y="214.217502952"/>
      </g>
     </g>
    </g>
    <g id="ytick_15">
     <g id="line2d_48">
      <g>
       <use style="stroke:#000000;stroke-width:0.5;" x="83.7675" xlink:href="#m0af247f1fc" y="204.248412598"/>
      </g>
     </g>
     <g id="line2d_49">
      <g>
       <use style="stroke:#000000;stroke-width:0.5;" x="530.1675" xlink:href="#m29388ed1f2" y="204.248412598"/>
      </g>
     </g>
    </g>
    <g id="ytick_16">
     <g id="line2d_50">
      <g>
       <use style="stroke:#000000;stroke-width:0.5;" x="83.7675" xlink:href="#m0af247f1fc" y="184.310231889"/>
      </g>
     </g>
     <g id="line2d_51">
      <g>
       <use style="stroke:#000000;stroke-width:0.5;" x="530.1675" xlink:href="#m29388ed1f2" y="184.310231889"/>
      </g>
     </g>
    </g>
    <g id="ytick_17">
     <g id="line2d_52">
      <g>
       <use style="stroke:#000000;stroke-width:0.5;" x="83.7675" xlink:href="#m0af247f1fc" y="174.341141535"/>
      </g>
     </g>
     <g id="line2d_53">
      <g>
       <use style="stroke:#000000;stroke-width:0.5;" x="530.1675" xlink:href="#m29388ed1f2" y="174.341141535"/>
      </g>
     </g>
    </g>
    <g id="ytick_18">
     <g id="line2d_54">
      <g>
       <use style="stroke:#000000;stroke-width:0.5;" x="83.7675" xlink:href="#m0af247f1fc" y="164.372051181"/>
      </g>
     </g>
     <g id="line2d_55">
      <g>
       <use style="stroke:#000000;stroke-width:0.5;" x="530.1675" xlink:href="#m29388ed1f2" y="164.372051181"/>
      </g>
     </g>
    </g>
    <g id="ytick_19">
     <g id="line2d_56">
      <g>
       <use style="stroke:#000000;stroke-width:0.5;" x="83.7675" xlink:href="#m0af247f1fc" y="144.433870472"/>
      </g>
     </g>
     <g id="line2d_57">
      <g>
       <use style="stroke:#000000;stroke-width:0.5;" x="530.1675" xlink:href="#m29388ed1f2" y="144.433870472"/>
      </g>
     </g>
    </g>
    <g id="ytick_20">
     <g id="line2d_58">
      <g>
       <use style="stroke:#000000;stroke-width:0.5;" x="83.7675" xlink:href="#m0af247f1fc" y="134.464780118"/>
      </g>
     </g>
     <g id="line2d_59">
      <g>
       <use style="stroke:#000000;stroke-width:0.5;" x="530.1675" xlink:href="#m29388ed1f2" y="134.464780118"/>
      </g>
     </g>
    </g>
    <g id="ytick_21">
     <g id="line2d_60">
      <g>
       <use style="stroke:#000000;stroke-width:0.5;" x="83.7675" xlink:href="#m0af247f1fc" y="124.495689764"/>
      </g>
     </g>
     <g id="line2d_61">
      <g>
       <use style="stroke:#000000;stroke-width:0.5;" x="530.1675" xlink:href="#m29388ed1f2" y="124.495689764"/>
      </g>
     </g>
    </g>
    <g id="ytick_22">
     <g id="line2d_62">
      <g>
       <use style="stroke:#000000;stroke-width:0.5;" x="83.7675" xlink:href="#m0af247f1fc" y="104.557509055"/>
      </g>
     </g>
     <g id="line2d_63">
      <g>
       <use style="stroke:#000000;stroke-width:0.5;" x="530.1675" xlink:href="#m29388ed1f2" y="104.557509055"/>
      </g>
     </g>
    </g>
    <g id="ytick_23">
     <g id="line2d_64">
      <g>
       <use style="stroke:#000000;stroke-width:0.5;" x="83.7675" xlink:href="#m0af247f1fc" y="94.5884187012"/>
      </g>
     </g>
     <g id="line2d_65">
      <g>
       <use style="stroke:#000000;stroke-width:0.5;" x="530.1675" xlink:href="#m29388ed1f2" y="94.5884187012"/>
      </g>
     </g>
    </g>
    <g id="ytick_24">
     <g id="line2d_66">
      <g>
       <use style="stroke:#000000;stroke-width:0.5;" x="83.7675" xlink:href="#m0af247f1fc" y="84.6193283469"/>
      </g>
     </g>
     <g id="line2d_67">
      <g>
       <use style="stroke:#000000;stroke-width:0.5;" x="530.1675" xlink:href="#m29388ed1f2" y="84.6193283469"/>
      </g>
     </g>
    </g>
    <g id="ytick_25">
     <g id="line2d_68">
      <g>
       <use style="stroke:#000000;stroke-width:0.5;" x="83.7675" xlink:href="#m0af247f1fc" y="64.6811476385"/>
      </g>
     </g>
     <g id="line2d_69">
      <g>
       <use style="stroke:#000000;stroke-width:0.5;" x="530.1675" xlink:href="#m29388ed1f2" y="64.6811476385"/>
      </g>
     </g>
    </g>
    <g id="ytick_26">
     <g id="line2d_70">
      <g>
       <use style="stroke:#000000;stroke-width:0.5;" x="83.7675" xlink:href="#m0af247f1fc" y="54.7120572842"/>
      </g>
     </g>
     <g id="line2d_71">
      <g>
       <use style="stroke:#000000;stroke-width:0.5;" x="530.1675" xlink:href="#m29388ed1f2" y="54.7120572842"/>
      </g>
     </g>
    </g>
    <g id="ytick_27">
     <g id="line2d_72">
      <g>
       <use style="stroke:#000000;stroke-width:0.5;" x="83.7675" xlink:href="#m0af247f1fc" y="44.74296693"/>
      </g>
     </g>
     <g id="line2d_73">
      <g>
       <use style="stroke:#000000;stroke-width:0.5;" x="530.1675" xlink:href="#m29388ed1f2" y="44.74296693"/>
      </g>
     </g>
    </g>
    <g id="text_17">
     <!-- temp / K -->
     <defs>
      <path d="M 9.8125 72.90625 
L 19.671875 72.90625 
L 19.671875 42.09375 
L 52.390625 72.90625 
L 65.09375 72.90625 
L 28.90625 38.921875 
L 67.671875 0 
L 54.6875 0 
L 19.671875 35.109375 
L 19.671875 0 
L 9.8125 0 
z
" id="BitstreamVeraSans-Roman-4b"/>
      <path d="M 18.109375 8.203125 
L 18.109375 -20.796875 
L 9.078125 -20.796875 
L 9.078125 54.6875 
L 18.109375 54.6875 
L 18.109375 46.390625 
Q 20.953125 51.265625 25.265625 53.625 
Q 29.59375 56 35.59375 56 
Q 45.5625 56 51.78125 48.09375 
Q 58.015625 40.1875 58.015625 27.296875 
Q 58.015625 14.40625 51.78125 6.484375 
Q 45.5625 -1.421875 35.59375 -1.421875 
Q 29.59375 -1.421875 25.265625 0.953125 
Q 20.953125 3.328125 18.109375 8.203125 
M 48.6875 27.296875 
Q 48.6875 37.203125 44.609375 42.84375 
Q 40.53125 48.484375 33.40625 48.484375 
Q 26.265625 48.484375 22.1875 42.84375 
Q 18.109375 37.203125 18.109375 27.296875 
Q 18.109375 17.390625 22.1875 11.75 
Q 26.265625 6.109375 33.40625 6.109375 
Q 40.53125 6.109375 44.609375 11.75 
Q 48.6875 17.390625 48.6875 27.296875 
" id="BitstreamVeraSans-Roman-70"/>
      <path d="M 25.390625 72.90625 
L 33.6875 72.90625 
L 8.296875 -9.28125 
L 0 -9.28125 
z
" id="BitstreamVeraSans-Roman-2f"/>
     </defs>
     <g transform="translate(37.918125 199.8089375)rotate(-90.0)scale(0.12 -0.12)">
      <use xlink:href="#BitstreamVeraSans-Roman-74"/>
      <use x="39.208984375" xlink:href="#BitstreamVeraSans-Roman-65"/>
      <use x="100.732421875" xlink:href="#BitstreamVeraSans-Roman-6d"/>
      <use x="198.14453125" xlink:href="#BitstreamVeraSans-Roman-70"/>
      <use x="261.62109375" xlink:href="#BitstreamVeraSans-Roman-20"/>
      <use x="293.408203125" xlink:href="#BitstreamVeraSans-Roman-2f"/>
      <use x="327.099609375" xlink:href="#BitstreamVeraSans-Roman-20"/>
      <use x="358.88671875" xlink:href="#BitstreamVeraSans-Roman-4b"/>
     </g>
    </g>
   </g>
   <g id="text_18">
    <!-- Papouch Thermometer Data, 2017-02-22, UoL PRD -->
    <defs>
     <path d="M 9.8125 72.90625 
L 19.671875 72.90625 
L 19.671875 8.296875 
L 55.171875 8.296875 
L 55.171875 0 
L 9.8125 0 
z
" id="BitstreamVeraSans-Roman-4c"/>
     <path d="M 8.203125 72.90625 
L 55.078125 72.90625 
L 55.078125 68.703125 
L 28.609375 0 
L 18.3125 0 
L 43.21875 64.59375 
L 8.203125 64.59375 
z
" id="BitstreamVeraSans-Roman-37"/>
     <path d="M 41.109375 46.296875 
Q 39.59375 47.171875 37.8125 47.578125 
Q 36.03125 48 33.890625 48 
Q 26.265625 48 22.1875 43.046875 
Q 18.109375 38.09375 18.109375 28.8125 
L 18.109375 0 
L 9.078125 0 
L 9.078125 54.6875 
L 18.109375 54.6875 
L 18.109375 46.1875 
Q 20.953125 51.171875 25.484375 53.578125 
Q 30.03125 56 36.53125 56 
Q 37.453125 56 38.578125 55.875 
Q 39.703125 55.765625 41.0625 55.515625 
z
" id="BitstreamVeraSans-Roman-72"/>
     <path d="M 30.609375 48.390625 
Q 23.390625 48.390625 19.1875 42.75 
Q 14.984375 37.109375 14.984375 27.296875 
Q 14.984375 17.484375 19.15625 11.84375 
Q 23.34375 6.203125 30.609375 6.203125 
Q 37.796875 6.203125 41.984375 11.859375 
Q 46.1875 17.53125 46.1875 27.296875 
Q 46.1875 37.015625 41.984375 42.703125 
Q 37.796875 48.390625 30.609375 48.390625 
M 30.609375 56 
Q 42.328125 56 49.015625 48.375 
Q 55.71875 40.765625 55.71875 27.296875 
Q 55.71875 13.875 49.015625 6.21875 
Q 42.328125 -1.421875 30.609375 -1.421875 
Q 18.84375 -1.421875 12.171875 6.21875 
Q 5.515625 13.875 5.515625 27.296875 
Q 5.515625 40.765625 12.171875 48.375 
Q 18.84375 56 30.609375 56 
" id="BitstreamVeraSans-Roman-6f"/>
     <path d="M 44.390625 34.1875 
Q 47.5625 33.109375 50.5625 29.59375 
Q 53.5625 26.078125 56.59375 19.921875 
L 66.609375 0 
L 56 0 
L 46.6875 18.703125 
Q 43.0625 26.03125 39.671875 28.421875 
Q 36.28125 30.8125 30.421875 30.8125 
L 19.671875 30.8125 
L 19.671875 0 
L 9.8125 0 
L 9.8125 72.90625 
L 32.078125 72.90625 
Q 44.578125 72.90625 50.734375 67.671875 
Q 56.890625 62.453125 56.890625 51.90625 
Q 56.890625 45.015625 53.6875 40.46875 
Q 50.484375 35.9375 44.390625 34.1875 
M 19.671875 64.796875 
L 19.671875 38.921875 
L 32.078125 38.921875 
Q 39.203125 38.921875 42.84375 42.21875 
Q 46.484375 45.515625 46.484375 51.90625 
Q 46.484375 58.296875 42.84375 61.546875 
Q 39.203125 64.796875 32.078125 64.796875 
z
" id="BitstreamVeraSans-Roman-52"/>
     <path d="M 19.671875 64.796875 
L 19.671875 37.40625 
L 32.078125 37.40625 
Q 38.96875 37.40625 42.71875 40.96875 
Q 46.484375 44.53125 46.484375 51.125 
Q 46.484375 57.671875 42.71875 61.234375 
Q 38.96875 64.796875 32.078125 64.796875 
z
M 9.8125 72.90625 
L 32.078125 72.90625 
Q 44.34375 72.90625 50.609375 67.359375 
Q 56.890625 61.8125 56.890625 51.125 
Q 56.890625 40.328125 50.609375 34.8125 
Q 44.34375 29.296875 32.078125 29.296875 
L 19.671875 29.296875 
L 19.671875 0 
L 9.8125 0 
z
" id="BitstreamVeraSans-Roman-50"/>
     <path d="M 11.71875 12.40625 
L 22.015625 12.40625 
L 22.015625 4 
L 14.015625 -11.625 
L 7.71875 -11.625 
L 11.71875 4 
z
" id="BitstreamVeraSans-Roman-2c"/>
     <path d="M 19.671875 64.796875 
L 19.671875 8.109375 
L 31.59375 8.109375 
Q 46.6875 8.109375 53.6875 14.9375 
Q 60.6875 21.78125 60.6875 36.53125 
Q 60.6875 51.171875 53.6875 57.984375 
Q 46.6875 64.796875 31.59375 64.796875 
z
M 9.8125 72.90625 
L 30.078125 72.90625 
Q 51.265625 72.90625 61.171875 64.09375 
Q 71.09375 55.28125 71.09375 36.53125 
Q 71.09375 17.671875 61.125 8.828125 
Q 51.171875 0 30.078125 0 
L 9.8125 0 
z
" id="BitstreamVeraSans-Roman-44"/>
     <path d="M -0.296875 72.90625 
L 61.375 72.90625 
L 61.375 64.59375 
L 35.5 64.59375 
L 35.5 0 
L 25.59375 0 
L 25.59375 64.59375 
L -0.296875 64.59375 
z
" id="BitstreamVeraSans-Roman-54"/>
     <path d="M 54.890625 33.015625 
L 54.890625 0 
L 45.90625 0 
L 45.90625 32.71875 
Q 45.90625 40.484375 42.875 44.328125 
Q 39.84375 48.1875 33.796875 48.1875 
Q 26.515625 48.1875 22.3125 43.546875 
Q 18.109375 38.921875 18.109375 30.90625 
L 18.109375 0 
L 9.078125 0 
L 9.078125 75.984375 
L 18.109375 75.984375 
L 18.109375 46.1875 
Q 21.34375 51.125 25.703125 53.5625 
Q 30.078125 56 35.796875 56 
Q 45.21875 56 50.046875 50.171875 
Q 54.890625 44.34375 54.890625 33.015625 
" id="BitstreamVeraSans-Roman-68"/>
     <path d="M 8.6875 72.90625 
L 18.609375 72.90625 
L 18.609375 28.609375 
Q 18.609375 16.890625 22.84375 11.734375 
Q 27.09375 6.59375 36.625 6.59375 
Q 46.09375 6.59375 50.34375 11.734375 
Q 54.59375 16.890625 54.59375 28.609375 
L 54.59375 72.90625 
L 64.5 72.90625 
L 64.5 27.390625 
Q 64.5 13.140625 57.4375 5.859375 
Q 50.390625 -1.421875 36.625 -1.421875 
Q 22.796875 -1.421875 15.734375 5.859375 
Q 8.6875 13.140625 8.6875 27.390625 
z
" id="BitstreamVeraSans-Roman-55"/>
     <path d="M 8.5 21.578125 
L 8.5 54.6875 
L 17.484375 54.6875 
L 17.484375 21.921875 
Q 17.484375 14.15625 20.5 10.265625 
Q 23.53125 6.390625 29.59375 6.390625 
Q 36.859375 6.390625 41.078125 11.03125 
Q 45.3125 15.671875 45.3125 23.6875 
L 45.3125 54.6875 
L 54.296875 54.6875 
L 54.296875 0 
L 45.3125 0 
L 45.3125 8.40625 
Q 42.046875 3.421875 37.71875 1 
Q 33.40625 -1.421875 27.6875 -1.421875 
Q 18.265625 -1.421875 13.375 4.4375 
Q 8.5 10.296875 8.5 21.578125 
" id="BitstreamVeraSans-Roman-75"/>
     <path d="M 34.28125 27.484375 
Q 23.390625 27.484375 19.1875 25 
Q 14.984375 22.515625 14.984375 16.5 
Q 14.984375 11.71875 18.140625 8.90625 
Q 21.296875 6.109375 26.703125 6.109375 
Q 34.1875 6.109375 38.703125 11.40625 
Q 43.21875 16.703125 43.21875 25.484375 
L 43.21875 27.484375 
z
M 52.203125 31.203125 
L 52.203125 0 
L 43.21875 0 
L 43.21875 8.296875 
Q 40.140625 3.328125 35.546875 0.953125 
Q 30.953125 -1.421875 24.3125 -1.421875 
Q 15.921875 -1.421875 10.953125 3.296875 
Q 6 8.015625 6 15.921875 
Q 6 25.140625 12.171875 29.828125 
Q 18.359375 34.515625 30.609375 34.515625 
L 43.21875 34.515625 
L 43.21875 35.40625 
Q 43.21875 41.609375 39.140625 45 
Q 35.0625 48.390625 27.6875 48.390625 
Q 23 48.390625 18.546875 47.265625 
Q 14.109375 46.140625 10.015625 43.890625 
L 10.015625 52.203125 
Q 14.9375 54.109375 19.578125 55.046875 
Q 24.21875 56 28.609375 56 
Q 40.484375 56 46.34375 49.84375 
Q 52.203125 43.703125 52.203125 31.203125 
" id="BitstreamVeraSans-Roman-61"/>
     <path d="M 48.78125 52.59375 
L 48.78125 44.1875 
Q 44.96875 46.296875 41.140625 47.34375 
Q 37.3125 48.390625 33.40625 48.390625 
Q 24.65625 48.390625 19.8125 42.84375 
Q 14.984375 37.3125 14.984375 27.296875 
Q 14.984375 17.28125 19.8125 11.734375 
Q 24.65625 6.203125 33.40625 6.203125 
Q 37.3125 6.203125 41.140625 7.25 
Q 44.96875 8.296875 48.78125 10.40625 
L 48.78125 2.09375 
Q 45.015625 0.34375 40.984375 -0.53125 
Q 36.96875 -1.421875 32.421875 -1.421875 
Q 20.0625 -1.421875 12.78125 6.34375 
Q 5.515625 14.109375 5.515625 27.296875 
Q 5.515625 40.671875 12.859375 48.328125 
Q 20.21875 56 33.015625 56 
Q 37.15625 56 41.109375 55.140625 
Q 45.0625 54.296875 48.78125 52.59375 
" id="BitstreamVeraSans-Roman-63"/>
     <path d="M 4.890625 31.390625 
L 31.203125 31.390625 
L 31.203125 23.390625 
L 4.890625 23.390625 
z
" id="BitstreamVeraSans-Roman-2d"/>
    </defs>
    <g transform="translate(123.105375 39.74175)scale(0.144 -0.144)">
     <use xlink:href="#BitstreamVeraSans-Roman-50"/>
     <use x="60.240234375" xlink:href="#BitstreamVeraSans-Roman-61"/>
     <use x="121.51953125" xlink:href="#BitstreamVeraSans-Roman-70"/>
     <use x="184.99609375" xlink:href="#BitstreamVeraSans-Roman-6f"/>
     <use x="246.177734375" xlink:href="#BitstreamVeraSans-Roman-75"/>
     <use x="309.556640625" xlink:href="#BitstreamVeraSans-Roman-63"/>
     <use x="364.537109375" xlink:href="#BitstreamVeraSans-Roman-68"/>
     <use x="427.916015625" xlink:href="#BitstreamVeraSans-Roman-20"/>
     <use x="459.703125" xlink:href="#BitstreamVeraSans-Roman-54"/>
     <use x="520.787109375" xlink:href="#BitstreamVeraSans-Roman-68"/>
     <use x="584.166015625" xlink:href="#BitstreamVeraSans-Roman-65"/>
     <use x="645.689453125" xlink:href="#BitstreamVeraSans-Roman-72"/>
     <use x="686.787109375" xlink:href="#BitstreamVeraSans-Roman-6d"/>
     <use x="784.19921875" xlink:href="#BitstreamVeraSans-Roman-6f"/>
     <use x="845.380859375" xlink:href="#BitstreamVeraSans-Roman-6d"/>
     <use x="942.79296875" xlink:href="#BitstreamVeraSans-Roman-65"/>
     <use x="1004.31640625" xlink:href="#BitstreamVeraSans-Roman-74"/>
     <use x="1043.52539062" xlink:href="#BitstreamVeraSans-Roman-65"/>
     <use x="1105.04882812" xlink:href="#BitstreamVeraSans-Roman-72"/>
     <use x="1146.16210938" xlink:href="#BitstreamVeraSans-Roman-20"/>
     <use x="1177.94921875" xlink:href="#BitstreamVeraSans-Roman-44"/>
     <use x="1254.95117188" xlink:href="#BitstreamVeraSans-Roman-61"/>
     <use x="1316.23046875" xlink:href="#BitstreamVeraSans-Roman-74"/>
     <use x="1355.43945312" xlink:href="#BitstreamVeraSans-Roman-61"/>
     <use x="1416.71875" xlink:href="#BitstreamVeraSans-Roman-2c"/>
     <use x="1448.50585938" xlink:href="#BitstreamVeraSans-Roman-20"/>
     <use x="1480.29296875" xlink:href="#BitstreamVeraSans-Roman-32"/>
     <use x="1543.91601562" xlink:href="#BitstreamVeraSans-Roman-30"/>
     <use x="1607.5390625" xlink:href="#BitstreamVeraSans-Roman-31"/>
     <use x="1671.16210938" xlink:href="#BitstreamVeraSans-Roman-37"/>
     <use x="1734.78515625" xlink:href="#BitstreamVeraSans-Roman-2d"/>
     <use x="1770.86914062" xlink:href="#BitstreamVeraSans-Roman-30"/>
     <use x="1834.4921875" xlink:href="#BitstreamVeraSans-Roman-32"/>
     <use x="1898.11523438" xlink:href="#BitstreamVeraSans-Roman-2d"/>
     <use x="1934.19921875" xlink:href="#BitstreamVeraSans-Roman-32"/>
     <use x="1997.82226562" xlink:href="#BitstreamVeraSans-Roman-32"/>
     <use x="2061.4453125" xlink:href="#BitstreamVeraSans-Roman-2c"/>
     <use x="2093.23242188" xlink:href="#BitstreamVeraSans-Roman-20"/>
     <use x="2125.01953125" xlink:href="#BitstreamVeraSans-Roman-55"/>
     <use x="2198.21289062" xlink:href="#BitstreamVeraSans-Roman-6f"/>
     <use x="2259.39453125" xlink:href="#BitstreamVeraSans-Roman-4c"/>
     <use x="2315.10742188" xlink:href="#BitstreamVeraSans-Roman-20"/>
     <use x="2346.89453125" xlink:href="#BitstreamVeraSans-Roman-50"/>
     <use x="2407.19726562" xlink:href="#BitstreamVeraSans-Roman-52"/>
     <use x="2476.6796875" xlink:href="#BitstreamVeraSans-Roman-44"/>
    </g>
   </g>
  </g>
 </g>
 <defs>
  <clipPath id="p336cf150a9">
   <rect height="259.2" width="446.4" x="83.7675" y="44.74175"/>
  </clipPath>
 </defs>
</svg>
